<svg xmlns="http://www.w3.org/2000/svg" xmlns:xlink="http://www.w3.org/1999/xlink" width="500" zoomAndPan="magnify" viewBox="0 0 375 374.999991" height="500" preserveAspectRatio="xMidYMid meet" version="1.0"><defs><g/><clipPath id="3cd665d3f0"><path d="M 71.253906 85.03125 L 116.152344 85.03125 L 116.152344 129.925781 L 71.253906 129.925781 Z M 71.253906 85.03125 " clip-rule="nonzero"/></clipPath><clipPath id="83e97fc319"><path d="M 93.703125 85.03125 C 81.304688 85.03125 71.253906 95.082031 71.253906 107.476562 C 71.253906 119.875 81.304688 129.925781 93.703125 129.925781 C 106.101562 129.925781 116.152344 119.875 116.152344 107.476562 C 116.152344 95.082031 106.101562 85.03125 93.703125 85.03125 Z M 93.703125 85.03125 " clip-rule="nonzero"/></clipPath><clipPath id="10998e52d2"><path d="M 1.5625 85.03125 L 46.457031 85.03125 L 46.457031 129.925781 L 1.5625 129.925781 Z M 1.5625 85.03125 " clip-rule="nonzero"/></clipPath><clipPath id="a4d43ffe6f"><path d="M 24.007812 85.03125 C 11.609375 85.03125 1.5625 95.082031 1.5625 107.476562 C 1.5625 119.875 11.609375 129.925781 24.007812 129.925781 C 36.40625 129.925781 46.457031 119.875 46.457031 107.476562 C 46.457031 95.082031 36.40625 85.03125 24.007812 85.03125 Z M 24.007812 85.03125 " clip-rule="nonzero"/></clipPath><clipPath id="66877e06f9"><path d="M 140.949219 85.03125 L 185.847656 85.03125 L 185.847656 129.925781 L 140.949219 129.925781 Z M 140.949219 85.03125 " clip-rule="nonzero"/></clipPath><clipPath id="bf6d5e5292"><path d="M 163.398438 85.03125 C 151 85.03125 140.949219 95.082031 140.949219 107.476562 C 140.949219 119.875 151 129.925781 163.398438 129.925781 C 175.796875 129.925781 185.847656 119.875 185.847656 107.476562 C 185.847656 95.082031 175.796875 85.03125 163.398438 85.03125 Z M 163.398438 85.03125 " clip-rule="nonzero"/></clipPath></defs><g clip-path="url(#3cd665d3f0)"><g clip-path="url(#83e97fc319)"><path fill="#85d6a1" d="M 71.253906 85.03125 L 116.152344 85.03125 L 116.152344 129.925781 L 71.253906 129.925781 Z M 71.253906 85.03125 " fill-opacity="1" fill-rule="nonzero"/></g></g><g fill="#182630" fill-opacity="1"><g transform="translate(-4.554369, 233.094916)"><g><path d="M 6.34375 -87.3125 L 31.640625 -87.3125 C 43.773438 -87.3125 54.144531 -83.164062 62.75 -74.875 C 71.363281 -66.582031 75.671875 -56.191406 75.671875 -43.703125 C 75.671875 -31.148438 71.382812 -20.726562 62.8125 -12.4375 C 54.238281 -4.144531 43.847656 0 31.640625 0 L 6.34375 0 Z M 26.25 -17.78125 L 29.3125 -17.78125 C 36.582031 -17.78125 42.523438 -20.226562 47.140625 -25.125 C 51.765625 -30.03125 54.113281 -36.1875 54.1875 -43.59375 C 54.1875 -51.007812 51.875 -57.1875 47.25 -62.125 C 42.632812 -67.0625 36.65625 -69.53125 29.3125 -69.53125 L 26.25 -69.53125 Z M 26.25 -17.78125 "/></g></g></g><g fill="#182630" fill-opacity="1"><g transform="translate(63.579165, 233.094916)"><g><path d="M 61.28125 -24.546875 L 21.90625 -24.546875 C 21.90625 -20.742188 23.140625 -17.921875 25.609375 -16.078125 C 28.078125 -14.242188 30.757812 -13.328125 33.65625 -13.328125 C 36.6875 -13.328125 39.082031 -13.734375 40.84375 -14.546875 C 42.613281 -15.359375 44.625 -16.960938 46.875 -19.359375 L 60.421875 -12.59375 C 54.785156 -3.132812 45.40625 1.59375 32.28125 1.59375 C 24.09375 1.59375 17.070312 -1.207031 11.21875 -6.8125 C 5.363281 -12.425781 2.4375 -19.179688 2.4375 -27.078125 C 2.4375 -34.984375 5.363281 -41.757812 11.21875 -47.40625 C 17.070312 -53.050781 24.09375 -55.875 32.28125 -55.875 C 40.882812 -55.875 47.882812 -53.382812 53.28125 -48.40625 C 58.675781 -43.4375 61.375 -36.332031 61.375 -27.09375 C 61.375 -25.820312 61.34375 -24.972656 61.28125 -24.546875 Z M 22.4375 -34.921875 L 43.078125 -34.921875 C 42.648438 -37.742188 41.535156 -39.910156 39.734375 -41.421875 C 37.941406 -42.941406 35.632812 -43.703125 32.8125 -43.703125 C 29.707031 -43.703125 27.234375 -42.890625 25.390625 -41.265625 C 23.554688 -39.648438 22.570312 -37.535156 22.4375 -34.921875 Z M 22.4375 -34.921875 "/></g></g></g><g fill="#182630" fill-opacity="1"><g transform="translate(117.429439, 233.094916)"><g><path d="M 20.109375 -54.296875 L 33.328125 -24.765625 L 46.5625 -54.296875 L 68.78125 -54.296875 L 39.6875 0 L 26.984375 0 L -2.109375 -54.296875 Z M 20.109375 -54.296875 "/></g></g></g><g fill="#2cc661" fill-opacity="1"><g transform="translate(174.139114, 233.094916)"><g><path d="M 26.25 -35.03125 L 26.25 0 L 6.34375 0 L 6.34375 -87.3125 L 26.25 -87.3125 L 26.25 -52.484375 L 54.390625 -52.484375 L 54.390625 -87.3125 L 74.296875 -87.3125 L 74.296875 0 L 54.390625 0 L 54.390625 -35.03125 Z M 26.25 -35.03125 "/></g></g></g><g fill="#2cc661" fill-opacity="1"><g transform="translate(244.811903, 233.094916)"><g><path d="M 24.015625 -54.296875 L 24.015625 -28.46875 C 24.015625 -23.101562 24.828125 -19.289062 26.453125 -17.03125 C 28.078125 -14.78125 30.828125 -13.65625 34.703125 -13.65625 C 38.585938 -13.65625 41.34375 -14.78125 42.96875 -17.03125 C 44.59375 -19.289062 45.40625 -23.101562 45.40625 -28.46875 L 45.40625 -54.296875 L 64.125 -54.296875 L 64.125 -23.921875 C 64.125 -14.890625 61.78125 -8.378906 57.09375 -4.390625 C 52.40625 -0.398438 44.941406 1.59375 34.703125 1.59375 C 24.472656 1.59375 17.015625 -0.398438 12.328125 -4.390625 C 7.640625 -8.378906 5.296875 -14.890625 5.296875 -23.921875 L 5.296875 -54.296875 Z M 24.015625 -54.296875 "/></g></g></g><g fill="#2cc661" fill-opacity="1"><g transform="translate(304.269688, 233.094916)"><g><path d="M 62.21875 -47.515625 C 67.300781 -41.941406 69.84375 -35.132812 69.84375 -27.09375 C 69.84375 -19.050781 67.300781 -12.257812 62.21875 -6.71875 C 57.144531 -1.175781 50.691406 1.59375 42.859375 1.59375 C 35.660156 1.59375 29.734375 -0.984375 25.078125 -6.140625 L 24.875 -6.140625 L 24.875 0 L 6.34375 0 L 6.34375 -91.015625 L 25.078125 -91.015625 L 25.078125 -49.109375 C 29.734375 -53.617188 35.660156 -55.875 42.859375 -55.875 C 50.691406 -55.875 57.144531 -53.085938 62.21875 -47.515625 Z M 46.453125 -17.9375 C 48.785156 -20.300781 49.953125 -23.351562 49.953125 -27.09375 C 49.953125 -30.832031 48.734375 -33.898438 46.296875 -36.296875 C 43.867188 -38.691406 40.851562 -39.890625 37.25 -39.890625 C 33.71875 -39.890625 30.734375 -38.691406 28.296875 -36.296875 C 25.867188 -33.898438 24.65625 -30.832031 24.65625 -27.09375 C 24.65625 -23.425781 25.835938 -20.390625 28.203125 -17.984375 C 30.566406 -15.585938 33.582031 -14.390625 37.25 -14.390625 C 41.0625 -14.390625 44.128906 -15.570312 46.453125 -17.9375 Z M 46.453125 -17.9375 "/></g></g></g><g fill="#000000" fill-opacity="1"><g transform="translate(9.958164, 274.431788)"><g><path d="M 3.875 -1.046875 C 3.875 -0.742188 3.765625 -0.492188 3.546875 -0.296875 C 3.335938 -0.0976562 3.09375 0 2.8125 0 C 2.5 0 2.242188 -0.0976562 2.046875 -0.296875 C 1.859375 -0.492188 1.765625 -0.742188 1.765625 -1.046875 L 1.765625 -13.890625 C 1.765625 -14.171875 1.863281 -14.410156 2.0625 -14.609375 C 2.257812 -14.804688 2.515625 -14.90625 2.828125 -14.90625 C 3.117188 -14.90625 3.363281 -14.804688 3.5625 -14.609375 C 3.769531 -14.410156 3.875 -14.171875 3.875 -13.890625 Z M 3.875 -1.046875 "/></g></g></g><g fill="#000000" fill-opacity="1"><g transform="translate(29.486199, 274.431788)"><g><path d="M 11.4375 -14.90625 C 11.738281 -14.90625 11.984375 -14.816406 12.171875 -14.640625 C 12.359375 -14.460938 12.453125 -14.222656 12.453125 -13.921875 C 12.453125 -13.628906 12.359375 -13.394531 12.171875 -13.21875 C 11.984375 -13.050781 11.738281 -12.96875 11.4375 -12.96875 L 7.640625 -12.96875 L 7.640625 -1.015625 C 7.640625 -0.734375 7.535156 -0.492188 7.328125 -0.296875 C 7.128906 -0.0976562 6.875 0 6.5625 0 C 6.25 0 5.988281 -0.0976562 5.78125 -0.296875 C 5.570312 -0.492188 5.46875 -0.734375 5.46875 -1.015625 L 5.46875 -12.96875 L 1.703125 -12.96875 C 1.398438 -12.96875 1.15625 -13.054688 0.96875 -13.234375 C 0.78125 -13.410156 0.6875 -13.648438 0.6875 -13.953125 C 0.6875 -14.234375 0.78125 -14.460938 0.96875 -14.640625 C 1.15625 -14.816406 1.398438 -14.90625 1.703125 -14.90625 Z M 11.4375 -14.90625 "/></g></g></g><g fill="#000000" fill-opacity="1"><g transform="translate(56.50699, 274.431788)"><g/></g></g><g fill="#000000" fill-opacity="1"><g transform="translate(76.290456, 274.431788)"><g><path d="M 13.125 -1.703125 C 13.257812 -1.597656 13.367188 -1.472656 13.453125 -1.328125 C 13.546875 -1.179688 13.59375 -1.03125 13.59375 -0.875 C 13.59375 -0.570312 13.492188 -0.347656 13.296875 -0.203125 C 13.109375 -0.0664062 12.878906 0 12.609375 0 C 12.335938 0 12.109375 -0.0546875 11.921875 -0.171875 C 11.492188 -0.410156 11.144531 -0.800781 10.875 -1.34375 C 10.613281 -1.882812 10.484375 -2.679688 10.484375 -3.734375 C 10.484375 -4.441406 10.269531 -4.960938 9.84375 -5.296875 C 9.414062 -5.640625 8.859375 -5.8125 8.171875 -5.8125 L 3.875 -5.8125 L 3.875 -1.015625 C 3.875 -0.722656 3.785156 -0.476562 3.609375 -0.28125 C 3.441406 -0.09375 3.222656 0 2.953125 0 C 2.628906 0 2.347656 -0.0976562 2.109375 -0.296875 C 1.878906 -0.492188 1.765625 -0.734375 1.765625 -1.015625 L 1.765625 -13.890625 C 1.765625 -14.171875 1.863281 -14.410156 2.0625 -14.609375 C 2.257812 -14.804688 2.503906 -14.90625 2.796875 -14.90625 L 8.78125 -14.90625 C 9.539062 -14.90625 10.238281 -14.71875 10.875 -14.34375 C 11.519531 -13.96875 12.03125 -13.445312 12.40625 -12.78125 C 12.789062 -12.125 12.984375 -11.382812 12.984375 -10.5625 C 12.984375 -9.769531 12.769531 -9.03125 12.34375 -8.34375 C 11.925781 -7.65625 11.382812 -7.140625 10.71875 -6.796875 C 11.238281 -6.523438 11.648438 -6.144531 11.953125 -5.65625 C 12.265625 -5.175781 12.429688 -4.617188 12.453125 -3.984375 C 12.515625 -3.171875 12.578125 -2.617188 12.640625 -2.328125 C 12.710938 -2.035156 12.875 -1.828125 13.125 -1.703125 Z M 8.734375 -7.578125 C 9.085938 -7.609375 9.421875 -7.75 9.734375 -8 C 10.054688 -8.257812 10.316406 -8.601562 10.515625 -9.03125 C 10.710938 -9.46875 10.8125 -9.957031 10.8125 -10.5 C 10.8125 -11.175781 10.601562 -11.753906 10.1875 -12.234375 C 9.769531 -12.710938 9.265625 -12.953125 8.671875 -12.953125 L 3.875 -12.953125 L 3.875 -7.578125 Z M 8.734375 -7.578125 "/></g></g></g><g fill="#000000" fill-opacity="1"><g transform="translate(104.652283, 274.431788)"><g><path d="M 10.203125 -1.953125 C 10.503906 -1.953125 10.75 -1.851562 10.9375 -1.65625 C 11.125 -1.457031 11.21875 -1.222656 11.21875 -0.953125 C 11.21875 -0.671875 11.125 -0.441406 10.9375 -0.265625 C 10.75 -0.0859375 10.503906 0 10.203125 0 L 2.796875 0 C 2.503906 0 2.257812 -0.0976562 2.0625 -0.296875 C 1.863281 -0.492188 1.765625 -0.734375 1.765625 -1.015625 L 1.765625 -13.890625 C 1.765625 -14.171875 1.863281 -14.410156 2.0625 -14.609375 C 2.257812 -14.804688 2.503906 -14.90625 2.796875 -14.90625 L 10.203125 -14.90625 C 10.503906 -14.90625 10.75 -14.8125 10.9375 -14.625 C 11.125 -14.445312 11.21875 -14.207031 11.21875 -13.90625 C 11.21875 -13.625 11.125 -13.394531 10.9375 -13.21875 C 10.75 -13.039062 10.503906 -12.953125 10.203125 -12.953125 L 3.875 -12.953125 L 3.875 -8.609375 L 9.25 -8.609375 C 9.539062 -8.609375 9.78125 -8.515625 9.96875 -8.328125 C 10.164062 -8.140625 10.265625 -7.90625 10.265625 -7.625 C 10.265625 -7.320312 10.164062 -7.085938 9.96875 -6.921875 C 9.78125 -6.753906 9.539062 -6.671875 9.25 -6.671875 L 3.875 -6.671875 L 3.875 -1.953125 Z M 10.203125 -1.953125 "/></g></g></g><g fill="#000000" fill-opacity="1"><g transform="translate(130.672606, 274.431788)"><g><path d="M 12.390625 -14.03125 C 12.734375 -13.851562 12.90625 -13.570312 12.90625 -13.1875 C 12.90625 -12.925781 12.820312 -12.691406 12.65625 -12.484375 C 12.476562 -12.253906 12.242188 -12.140625 11.953125 -12.140625 C 11.753906 -12.140625 11.5625 -12.1875 11.375 -12.28125 C 10.488281 -12.78125 9.535156 -13.03125 8.515625 -13.03125 C 7.453125 -13.03125 6.507812 -12.796875 5.6875 -12.328125 C 4.875 -11.859375 4.238281 -11.203125 3.78125 -10.359375 C 3.332031 -9.515625 3.109375 -8.546875 3.109375 -7.453125 C 3.109375 -6.273438 3.34375 -5.257812 3.8125 -4.40625 C 4.28125 -3.550781 4.925781 -2.898438 5.75 -2.453125 C 6.570312 -2.003906 7.492188 -1.78125 8.515625 -1.78125 C 9.566406 -1.78125 10.519531 -2.039062 11.375 -2.5625 C 11.539062 -2.644531 11.722656 -2.6875 11.921875 -2.6875 C 12.234375 -2.6875 12.484375 -2.566406 12.671875 -2.328125 C 12.835938 -2.109375 12.921875 -1.878906 12.921875 -1.640625 C 12.921875 -1.472656 12.875 -1.3125 12.78125 -1.15625 C 12.695312 -1.007812 12.578125 -0.894531 12.421875 -0.8125 C 11.859375 -0.5 11.234375 -0.25 10.546875 -0.0625 C 9.859375 0.125 9.179688 0.21875 8.515625 0.21875 C 7.140625 0.21875 5.875 -0.0859375 4.71875 -0.703125 C 3.5625 -1.316406 2.640625 -2.203125 1.953125 -3.359375 C 1.265625 -4.523438 0.921875 -5.890625 0.921875 -7.453125 C 0.921875 -8.890625 1.25 -10.1875 1.90625 -11.34375 C 2.5625 -12.5 3.46875 -13.40625 4.625 -14.0625 C 5.789062 -14.726562 7.085938 -15.0625 8.515625 -15.0625 C 9.890625 -15.0625 11.179688 -14.71875 12.390625 -14.03125 Z M 12.390625 -14.03125 "/></g></g></g><g fill="#000000" fill-opacity="1"><g transform="translate(158.140408, 274.431788)"><g><path d="M 13.125 -1.703125 C 13.257812 -1.597656 13.367188 -1.472656 13.453125 -1.328125 C 13.546875 -1.179688 13.59375 -1.03125 13.59375 -0.875 C 13.59375 -0.570312 13.492188 -0.347656 13.296875 -0.203125 C 13.109375 -0.0664062 12.878906 0 12.609375 0 C 12.335938 0 12.109375 -0.0546875 11.921875 -0.171875 C 11.492188 -0.410156 11.144531 -0.800781 10.875 -1.34375 C 10.613281 -1.882812 10.484375 -2.679688 10.484375 -3.734375 C 10.484375 -4.441406 10.269531 -4.960938 9.84375 -5.296875 C 9.414062 -5.640625 8.859375 -5.8125 8.171875 -5.8125 L 3.875 -5.8125 L 3.875 -1.015625 C 3.875 -0.722656 3.785156 -0.476562 3.609375 -0.28125 C 3.441406 -0.09375 3.222656 0 2.953125 0 C 2.628906 0 2.347656 -0.0976562 2.109375 -0.296875 C 1.878906 -0.492188 1.765625 -0.734375 1.765625 -1.015625 L 1.765625 -13.890625 C 1.765625 -14.171875 1.863281 -14.410156 2.0625 -14.609375 C 2.257812 -14.804688 2.503906 -14.90625 2.796875 -14.90625 L 8.78125 -14.90625 C 9.539062 -14.90625 10.238281 -14.71875 10.875 -14.34375 C 11.519531 -13.96875 12.03125 -13.445312 12.40625 -12.78125 C 12.789062 -12.125 12.984375 -11.382812 12.984375 -10.5625 C 12.984375 -9.769531 12.769531 -9.03125 12.34375 -8.34375 C 11.925781 -7.65625 11.382812 -7.140625 10.71875 -6.796875 C 11.238281 -6.523438 11.648438 -6.144531 11.953125 -5.65625 C 12.265625 -5.175781 12.429688 -4.617188 12.453125 -3.984375 C 12.515625 -3.171875 12.578125 -2.617188 12.640625 -2.328125 C 12.710938 -2.035156 12.875 -1.828125 13.125 -1.703125 Z M 8.734375 -7.578125 C 9.085938 -7.609375 9.421875 -7.75 9.734375 -8 C 10.054688 -8.257812 10.316406 -8.601562 10.515625 -9.03125 C 10.710938 -9.46875 10.8125 -9.957031 10.8125 -10.5 C 10.8125 -11.175781 10.601562 -11.753906 10.1875 -12.234375 C 9.769531 -12.710938 9.265625 -12.953125 8.671875 -12.953125 L 3.875 -12.953125 L 3.875 -7.578125 Z M 8.734375 -7.578125 "/></g></g></g><g fill="#000000" fill-opacity="1"><g transform="translate(186.502235, 274.431788)"><g><path d="M 12.328125 -14.921875 C 12.628906 -14.921875 12.867188 -14.828125 13.046875 -14.640625 C 13.222656 -14.453125 13.3125 -14.207031 13.3125 -13.90625 L 13.3125 -5.734375 C 13.3125 -4.609375 13.0625 -3.597656 12.5625 -2.703125 C 12.0625 -1.804688 11.375 -1.101562 10.5 -0.59375 C 9.632812 -0.09375 8.65625 0.15625 7.5625 0.15625 C 6.457031 0.15625 5.460938 -0.09375 4.578125 -0.59375 C 3.703125 -1.101562 3.015625 -1.804688 2.515625 -2.703125 C 2.015625 -3.597656 1.765625 -4.609375 1.765625 -5.734375 L 1.765625 -13.90625 C 1.765625 -14.207031 1.863281 -14.453125 2.0625 -14.640625 C 2.257812 -14.828125 2.515625 -14.921875 2.828125 -14.921875 C 3.097656 -14.921875 3.335938 -14.820312 3.546875 -14.625 C 3.753906 -14.425781 3.859375 -14.1875 3.859375 -13.90625 L 3.859375 -5.734375 C 3.859375 -4.992188 4.023438 -4.328125 4.359375 -3.734375 C 4.703125 -3.148438 5.15625 -2.691406 5.71875 -2.359375 C 6.289062 -2.035156 6.90625 -1.875 7.5625 -1.875 C 8.238281 -1.875 8.867188 -2.035156 9.453125 -2.359375 C 10.035156 -2.691406 10.5 -3.148438 10.84375 -3.734375 C 11.195312 -4.328125 11.375 -4.992188 11.375 -5.734375 L 11.375 -13.90625 C 11.375 -14.207031 11.457031 -14.453125 11.625 -14.640625 C 11.800781 -14.828125 12.035156 -14.921875 12.328125 -14.921875 Z M 12.328125 -14.921875 "/></g></g></g><g fill="#000000" fill-opacity="1"><g transform="translate(215.460061, 274.431788)"><g><path d="M 3.875 -1.046875 C 3.875 -0.742188 3.765625 -0.492188 3.546875 -0.296875 C 3.335938 -0.0976562 3.09375 0 2.8125 0 C 2.5 0 2.242188 -0.0976562 2.046875 -0.296875 C 1.859375 -0.492188 1.765625 -0.742188 1.765625 -1.046875 L 1.765625 -13.890625 C 1.765625 -14.171875 1.863281 -14.410156 2.0625 -14.609375 C 2.257812 -14.804688 2.515625 -14.90625 2.828125 -14.90625 C 3.117188 -14.90625 3.363281 -14.804688 3.5625 -14.609375 C 3.769531 -14.410156 3.875 -14.171875 3.875 -13.890625 Z M 3.875 -1.046875 "/></g></g></g><g fill="#000000" fill-opacity="1"><g transform="translate(234.988107, 274.431788)"><g><path d="M 11.4375 -14.90625 C 11.738281 -14.90625 11.984375 -14.816406 12.171875 -14.640625 C 12.359375 -14.460938 12.453125 -14.222656 12.453125 -13.921875 C 12.453125 -13.628906 12.359375 -13.394531 12.171875 -13.21875 C 11.984375 -13.050781 11.738281 -12.96875 11.4375 -12.96875 L 7.640625 -12.96875 L 7.640625 -1.015625 C 7.640625 -0.734375 7.535156 -0.492188 7.328125 -0.296875 C 7.128906 -0.0976562 6.875 0 6.5625 0 C 6.25 0 5.988281 -0.0976562 5.78125 -0.296875 C 5.570312 -0.492188 5.46875 -0.734375 5.46875 -1.015625 L 5.46875 -12.96875 L 1.703125 -12.96875 C 1.398438 -12.96875 1.15625 -13.054688 0.96875 -13.234375 C 0.78125 -13.410156 0.6875 -13.648438 0.6875 -13.953125 C 0.6875 -14.234375 0.78125 -14.460938 0.96875 -14.640625 C 1.15625 -14.816406 1.398438 -14.90625 1.703125 -14.90625 Z M 11.4375 -14.90625 "/></g></g></g><g fill="#000000" fill-opacity="1"><g transform="translate(262.008885, 274.431788)"><g><path d="M 14.71875 -14.921875 C 15 -14.910156 15.238281 -14.804688 15.4375 -14.609375 C 15.632812 -14.421875 15.734375 -14.1875 15.734375 -13.90625 L 15.734375 -1.015625 C 15.734375 -0.734375 15.632812 -0.492188 15.4375 -0.296875 C 15.25 -0.0976562 15 0 14.6875 0 C 14.375 0 14.117188 -0.09375 13.921875 -0.28125 C 13.722656 -0.476562 13.625 -0.722656 13.625 -1.015625 L 13.625 -10.875 L 9.5 -4.625 C 9.394531 -4.5 9.269531 -4.390625 9.125 -4.296875 C 8.976562 -4.210938 8.828125 -4.179688 8.671875 -4.203125 C 8.523438 -4.179688 8.375 -4.210938 8.21875 -4.296875 C 8.070312 -4.390625 7.953125 -4.5 7.859375 -4.625 L 3.703125 -11.078125 L 3.703125 -1.015625 C 3.703125 -0.722656 3.613281 -0.476562 3.4375 -0.28125 C 3.257812 -0.09375 3.019531 0 2.71875 0 C 2.4375 0 2.207031 -0.09375 2.03125 -0.28125 C 1.851562 -0.476562 1.765625 -0.722656 1.765625 -1.015625 L 1.765625 -13.90625 C 1.765625 -14.175781 1.863281 -14.410156 2.0625 -14.609375 C 2.257812 -14.816406 2.507812 -14.921875 2.8125 -14.921875 C 2.976562 -14.921875 3.144531 -14.878906 3.3125 -14.796875 C 3.476562 -14.710938 3.609375 -14.597656 3.703125 -14.453125 L 8.75 -6.8125 L 13.859375 -14.453125 C 14.085938 -14.765625 14.375 -14.921875 14.71875 -14.921875 Z M 14.71875 -14.921875 "/></g></g></g><g fill="#000000" fill-opacity="1"><g transform="translate(293.393362, 274.431788)"><g><path d="M 10.203125 -1.953125 C 10.503906 -1.953125 10.75 -1.851562 10.9375 -1.65625 C 11.125 -1.457031 11.21875 -1.222656 11.21875 -0.953125 C 11.21875 -0.671875 11.125 -0.441406 10.9375 -0.265625 C 10.75 -0.0859375 10.503906 0 10.203125 0 L 2.796875 0 C 2.503906 0 2.257812 -0.0976562 2.0625 -0.296875 C 1.863281 -0.492188 1.765625 -0.734375 1.765625 -1.015625 L 1.765625 -13.890625 C 1.765625 -14.171875 1.863281 -14.410156 2.0625 -14.609375 C 2.257812 -14.804688 2.503906 -14.90625 2.796875 -14.90625 L 10.203125 -14.90625 C 10.503906 -14.90625 10.75 -14.8125 10.9375 -14.625 C 11.125 -14.445312 11.21875 -14.207031 11.21875 -13.90625 C 11.21875 -13.625 11.125 -13.394531 10.9375 -13.21875 C 10.75 -13.039062 10.503906 -12.953125 10.203125 -12.953125 L 3.875 -12.953125 L 3.875 -8.609375 L 9.25 -8.609375 C 9.539062 -8.609375 9.78125 -8.515625 9.96875 -8.328125 C 10.164062 -8.140625 10.265625 -7.90625 10.265625 -7.625 C 10.265625 -7.320312 10.164062 -7.085938 9.96875 -6.921875 C 9.78125 -6.753906 9.539062 -6.671875 9.25 -6.671875 L 3.875 -6.671875 L 3.875 -1.953125 Z M 10.203125 -1.953125 "/></g></g></g><g fill="#000000" fill-opacity="1"><g transform="translate(319.413697, 274.431788)"><g><path d="M 12.90625 -14.90625 C 13.175781 -14.90625 13.394531 -14.816406 13.5625 -14.640625 C 13.738281 -14.460938 13.828125 -14.238281 13.828125 -13.96875 L 13.828125 -1.046875 C 13.828125 -0.742188 13.726562 -0.492188 13.53125 -0.296875 C 13.34375 -0.0976562 13.097656 0 12.796875 0 C 12.640625 0 12.488281 -0.0234375 12.34375 -0.078125 C 12.195312 -0.128906 12.078125 -0.203125 11.984375 -0.296875 L 3.625 -11.203125 L 3.625 -0.9375 C 3.625 -0.664062 3.535156 -0.441406 3.359375 -0.265625 C 3.179688 -0.0859375 2.957031 0 2.6875 0 C 2.414062 0 2.191406 -0.0859375 2.015625 -0.265625 C 1.847656 -0.441406 1.765625 -0.664062 1.765625 -0.9375 L 1.765625 -13.890625 C 1.765625 -14.179688 1.859375 -14.421875 2.046875 -14.609375 C 2.242188 -14.804688 2.484375 -14.90625 2.765625 -14.90625 C 2.941406 -14.90625 3.109375 -14.875 3.265625 -14.8125 C 3.421875 -14.75 3.539062 -14.660156 3.625 -14.546875 L 11.96875 -3.625 L 11.96875 -13.96875 C 11.96875 -14.238281 12.054688 -14.460938 12.234375 -14.640625 C 12.410156 -14.816406 12.632812 -14.90625 12.90625 -14.90625 Z M 12.90625 -14.90625 "/></g></g></g><g fill="#000000" fill-opacity="1"><g transform="translate(348.882423, 274.431788)"><g><path d="M 11.4375 -14.90625 C 11.738281 -14.90625 11.984375 -14.816406 12.171875 -14.640625 C 12.359375 -14.460938 12.453125 -14.222656 12.453125 -13.921875 C 12.453125 -13.628906 12.359375 -13.394531 12.171875 -13.21875 C 11.984375 -13.050781 11.738281 -12.96875 11.4375 -12.96875 L 7.640625 -12.96875 L 7.640625 -1.015625 C 7.640625 -0.734375 7.535156 -0.492188 7.328125 -0.296875 C 7.128906 -0.0976562 6.875 0 6.5625 0 C 6.25 0 5.988281 -0.0976562 5.78125 -0.296875 C 5.570312 -0.492188 5.46875 -0.734375 5.46875 -1.015625 L 5.46875 -12.96875 L 1.703125 -12.96875 C 1.398438 -12.96875 1.15625 -13.054688 0.96875 -13.234375 C 0.78125 -13.410156 0.6875 -13.648438 0.6875 -13.953125 C 0.6875 -14.234375 0.78125 -14.460938 0.96875 -14.640625 C 1.15625 -14.816406 1.398438 -14.90625 1.703125 -14.90625 Z M 11.4375 -14.90625 "/></g></g></g><g clip-path="url(#10998e52d2)"><g clip-path="url(#a4d43ffe6f)"><path fill="#d9d9d9" d="M 1.5625 85.03125 L 46.457031 85.03125 L 46.457031 129.925781 L 1.5625 129.925781 Z M 1.5625 85.03125 " fill-opacity="1" fill-rule="nonzero"/></g></g><g clip-path="url(#66877e06f9)"><g clip-path="url(#bf6d5e5292)"><path fill="#2cc661" d="M 140.949219 85.03125 L 185.847656 85.03125 L 185.847656 129.925781 L 140.949219 129.925781 Z M 140.949219 85.03125 " fill-opacity="1" fill-rule="nonzero"/></g></g></svg>